<?xml version="1.0" standalone="no"?>
<!DOCTYPE svg PUBLIC "-//W3C//DTD SVG 20010904//EN"
 "http://www.w3.org/TR/2001/REC-SVG-20010904/DTD/svg10.dtd">
<svg version="1.0" xmlns="http://www.w3.org/2000/svg"
 width="700.000000pt" height="398.000000pt" viewBox="0 0 700.000000 398.000000"
 preserveAspectRatio="xMidYMid meet">

<g transform="translate(0.000000,398.000000) scale(0.100000,-0.100000)"
fill="#000000" stroke="none">
<path d="M250 3032 c-92 -54 -178 -105 -193 -115 l-27 -17 0 -648 0 -648 370
-213 c204 -117 379 -215 389 -218 12 -3 155 74 395 212 l376 217 0 209 0 209
33 21 c17 11 100 60 182 107 l150 87 3 231 2 231 -194 111 c-106 62 -197 112
-200 112 -4 0 -94 -51 -201 -112 l-195 -113 0 -211 0 -212 -151 -86 c-84 -47
-156 -86 -160 -86 -5 0 -9 181 -9 404 l0 403 -194 112 c-106 61 -197 111 -202
110 -5 0 -83 -44 -174 -97z m383 -82 c53 -30 97 -58 97 -62 0 -9 -299 -180
-309 -176 -42 17 -299 174 -293 179 4 4 72 45 152 92 l145 84 56 -31 c30 -17
99 -56 152 -86z m1110 -210 c53 -30 97 -58 97 -61 0 -9 -301 -181 -309 -177
-51 21 -299 174 -292 181 5 5 73 46 152 92 l144 83 56 -31 c30 -18 99 -57 152
-87z m-1493 4 l150 -86 0 -423 0 -422 185 -104 185 -104 0 -178 c0 -111 -4
-177 -10 -175 -5 2 -158 89 -340 193 l-330 190 0 598 c0 328 2 597 5 597 3 0
73 -39 155 -86z m518 -300 l-3 -386 -153 -88 -152 -88 2 390 3 391 145 84 c79
45 148 83 152 83 5 0 7 -174 6 -386z m592 90 l150 -86 0 -174 c0 -96 -3 -174
-8 -174 -8 0 -280 156 -299 172 -17 13 -19 348 -3 348 6 0 78 -39 160 -86z
m520 -87 l0 -173 -151 -87 c-83 -48 -155 -87 -160 -87 -5 0 -9 74 -9 173 l0
173 148 86 c81 48 153 87 160 87 9 1 12 -40 12 -172z m-558 -313 c121 -70 147
-89 136 -99 -19 -18 -649 -375 -661 -375 -12 0 -306 163 -306 170 -1 6 660
388 673 389 5 1 76 -38 158 -85z m186 -321 l-3 -177 -275 -159 c-151 -87 -303
-174 -337 -194 l-63 -35 0 180 0 179 333 191 c182 105 335 191 340 191 4 1 6
-79 5 -176z"/>
<path d="M2660 2155 l0 -515 240 0 240 0 0 75 0 75 -160 0 -160 0 0 440 0 440
-80 0 -80 0 0 -515z"/>
<path d="M6840 2155 l0 -515 80 0 80 0 0 515 0 515 -80 0 -80 0 0 -515z"/>
<path d="M3400 2318 c-76 -29 -159 -114 -190 -193 -18 -46 -24 -80 -24 -145 0
-75 4 -93 31 -150 51 -108 122 -167 232 -196 103 -26 210 0 272 67 l29 31 0
-46 0 -46 80 0 80 0 0 345 0 345 -80 0 -80 0 0 -47 0 -47 -32 31 c-76 74 -205
94 -318 51z m247 -144 c53 -30 94 -98 101 -165 16 -170 -138 -296 -283 -230
-138 62 -169 257 -59 368 66 65 155 75 241 27z"/>
<path d="M4730 2323 c-70 -24 -125 -67 -168 -132 -124 -187 -56 -446 142 -537
115 -52 234 -39 319 37 l47 41 0 -46 0 -46 75 0 75 0 0 345 0 345 -75 0 -75 0
0 -45 c0 -51 -5 -55 -31 -21 -11 13 -42 36 -71 50 -62 31 -165 35 -238 9z
m206 -134 c57 -18 115 -96 127 -173 22 -138 -94 -268 -224 -253 -93 11 -157
72 -179 171 -16 71 1 142 46 195 65 75 126 91 230 60z"/>
<path d="M6263 2319 c-75 -29 -153 -104 -189 -181 -26 -56 -29 -74 -29 -163 0
-89 3 -106 28 -156 61 -126 175 -191 332 -193 83 -1 96 2 155 31 36 18 84 51
107 74 l42 41 -50 40 -50 39 -36 -32 c-130 -113 -319 -84 -368 58 -7 21 -11
41 -8 45 2 5 124 8 270 8 l266 0 -5 79 c-8 145 -91 264 -214 311 -73 27 -180
26 -251 -1z m213 -118 c45 -21 85 -67 103 -120 6 -19 11 -36 11 -37 0 -2 -88
-4 -196 -4 l-197 0 6 36 c13 79 97 144 187 144 25 0 64 -9 86 -19z"/>
<path d="M4040 1985 l0 -345 80 0 80 0 0 265 0 265 135 0 135 0 0 80 0 80
-215 0 -215 0 0 -345z"/>
<path d="M5310 2323 c0 -5 58 -159 129 -343 l129 -335 103 0 102 0 128 335
c71 184 129 339 129 343 0 4 -35 7 -77 5 l-78 -3 -102 -265 -101 -265 -19 45
c-11 25 -57 145 -104 267 l-84 223 -77 0 c-43 0 -78 -3 -78 -7z"/>
</g>
</svg>
