<?xml version="1.0" standalone="no"?>
<!DOCTYPE svg PUBLIC "-//W3C//DTD SVG 20010904//EN"
 "http://www.w3.org/TR/2001/REC-SVG-20010904/DTD/svg10.dtd">
<svg version="1.0" xmlns="http://www.w3.org/2000/svg"
 width="310.000000pt" height="162.000000pt" viewBox="0 0 310.000000 162.000000"
 preserveAspectRatio="xMidYMid meet">

<g transform="translate(0.000000,162.000000) scale(0.100000,-0.100000)"
fill="#000000" stroke="none">
<path d="M1377 1398 c-3 -13 -40 -198 -82 -413 -42 -214 -78 -398 -81 -407 -5
-16 4 -18 99 -18 l104 0 47 238 48 237 104 -3 c87 -3 106 -6 113 -21 7 -12 -3
-83 -30 -226 -21 -115 -39 -213 -39 -217 0 -5 48 -7 107 -6 l108 3 37 215 c20
118 37 233 37 256 1 56 -32 103 -94 134 -43 21 -67 25 -178 28 l-129 4 6 37
c3 20 12 69 20 109 l14 72 -103 0 c-98 0 -103 -1 -108 -22z"/>
<path d="M519 773 l-84 -428 99 -3 c54 -1 100 -1 102 1 2 2 14 51 25 110 l22
106 146 3 c142 3 148 4 213 36 136 67 209 190 209 353 1 125 -59 203 -176 234
-44 11 -112 15 -265 15 l-207 0 -84 -427z m498 223 c22 -26 24 -35 19 -80 -8
-63 -43 -134 -77 -159 -34 -24 -89 -36 -169 -37 l-66 0 28 158 c15 86 27 157
27 157 1 0 49 -2 107 -5 102 -5 107 -6 131 -34z"/>
<path d="M2025 1188 c-6 -20 -165 -821 -165 -836 0 -10 24 -12 102 -10 l102 3
19 107 20 106 151 4 c173 4 207 15 297 96 133 119 168 347 71 455 -69 75 -95
82 -360 85 -186 3 -233 1 -237 -10z m411 -191 c28 -33 31 -71 9 -144 -18 -59
-65 -106 -122 -122 -55 -16 -173 -14 -173 2 0 8 49 302 50 302 0 0 48 -2 106
-5 101 -5 107 -6 130 -33z"/>
</g>
</svg>
