<?xml version="1.0" standalone="no"?>
<!DOCTYPE svg PUBLIC "-//W3C//DTD SVG 20010904//EN"
 "http://www.w3.org/TR/2001/REC-SVG-20010904/DTD/svg10.dtd">
<svg version="1.0" xmlns="http://www.w3.org/2000/svg"
 width="306.000000pt" height="165.000000pt" viewBox="0 0 306.000000 165.000000"
 preserveAspectRatio="xMidYMid meet">

<g transform="translate(0.000000,165.000000) scale(0.100000,-0.100000)"
fill="#000000" stroke="none">
<path d="M1898 1573 c7 -3 16 -2 19 1 4 3 -2 6 -13 5 -11 0 -14 -3 -6 -6z"/>
<path d="M1951 1564 c20 -6 31 -41 15 -47 -6 -3 -34 0 -61 5 -28 5 -162 11
-300 15 -196 4 -280 2 -389 -11 -559 -65 -988 -291 -1088 -573 -23 -66 -24
-211 -1 -255 7 -16 11 -28 8 -28 -3 0 -1 -10 5 -22 8 -17 5 -16 -15 7 -44 50
-55 70 -65 116 -9 43 -9 43 -4 -11 9 -95 64 -192 163 -291 47 -47 115 -104
151 -128 192 -125 466 -219 780 -268 146 -22 596 -25 735 -5 344 52 608 142
813 279 260 173 366 395 293 616 -23 69 -96 181 -152 233 -155 145 -399 265
-679 333 -96 24 -263 51 -209 35z m266 -110 c-3 -3 -12 -4 -19 -1 -8 3 -5 6 6
6 11 1 17 -2 13 -5z m107 -30 c26 -9 45 -18 43 -20 -2 -2 -28 5 -58 15 -30 11
-49 20 -43 20 6 1 32 -6 58 -15z m-740 -20 c19 -18 19 -13 1 -94 -23 -104 -30
-96 96 -103 135 -7 209 -36 236 -93 9 -18 20 -31 24 -29 4 3 10 27 14 55 4 27
13 54 21 60 9 9 77 11 231 8 201 -3 222 -5 268 -26 61 -28 100 -64 128 -117
29 -56 29 -177 -2 -257 -40 -105 -123 -188 -223 -224 -25 -9 -96 -19 -168 -22
l-124 -7 -18 -89 c-10 -49 -23 -95 -29 -102 -17 -21 -202 -20 -219 1 -11 14
-5 85 17 173 5 22 4 22 -95 22 -74 0 -103 4 -111 14 -10 11 -4 55 23 199 20
101 36 193 36 204 0 27 -18 33 -98 33 l-67 0 -39 -208 c-22 -114 -43 -215 -48
-224 -7 -15 -24 -18 -112 -18 -138 0 -135 -4 -101 147 4 17 -7 9 -42 -28 -82
-88 -171 -119 -337 -119 l-94 0 -17 -93 c-9 -50 -21 -98 -27 -104 -11 -14
-181 -19 -212 -7 -9 3 -16 18 -16 33 0 47 148 792 161 807 9 11 49 14 200 14
103 0 212 -5 241 -11 97 -20 176 -83 194 -153 6 -23 15 11 44 157 20 102 42
193 49 201 19 23 193 23 215 0z m846 -20 c23 -9 39 -18 37 -20 -2 -3 -24 4
-48 15 -54 24 -45 27 11 5z m110 -49 c17 -9 30 -18 30 -21 0 -4 -59 23 -69 32
-10 9 13 3 39 -11z m115 -70 c11 -9 2 -7 -20 6 -22 12 -44 26 -50 32 -16 15
48 -20 70 -38z m96 -72 c8 -9 -5 -2 -28 17 -24 18 -43 35 -43 37 0 7 56 -35
71 -54z m91 -85 c46 -58 28 -45 -27 20 -27 31 -39 48 -26 37 13 -11 37 -37 53
-57z m78 -122 c0 -12 -5 -7 -19 24 -11 24 -11 24 3 6 9 -11 16 -24 16 -30z
m19 -56 c0 -10 -3 -8 -9 5 -12 27 -12 43 0 25 5 -8 9 -22 9 -30z m8 -57 c-3
-10 -5 -4 -5 12 0 17 2 24 5 18 2 -7 2 -21 0 -30z m10 -55 c-3 -8 -6 -5 -6 6
-1 11 2 17 5 13 3 -3 4 -12 1 -19z m-10 -65 c-3 -10 -5 -4 -5 12 0 17 2 24 5
18 2 -7 2 -21 0 -30z m-17 -60 c-11 -17 -11 -17 -6 0 3 10 6 24 7 30 0 9 2 9
5 0 3 -7 0 -20 -6 -30z m-39 -81 c-32 -61 -176 -198 -244 -233 -31 -16 -21 -8
50 45 73 53 135 115 171 169 26 39 40 50 23 19z m-271 -247 c0 -2 -18 -14 -40
-25 -22 -11 -40 -18 -40 -15 0 2 17 13 38 24 42 23 42 23 42 16z m-110 -60
c-36 -21 -181 -77 -186 -72 -3 2 28 16 68 31 40 15 84 33 98 41 14 8 30 14 35
14 6 0 -1 -6 -15 -14z m-230 -90 c-19 -7 -42 -13 -50 -13 -8 0 1 6 20 13 19 7
42 13 50 13 8 0 -1 -6 -20 -13z m-85 -25 c-11 -5 -29 -8 -40 -8 -16 0 -15 2 5
8 34 11 60 11 35 0z m-68 -16 c-3 -3 -12 -4 -19 -1 -8 3 -5 6 6 6 11 1 17 -2
13 -5z m-1130 -10 c-3 -3 -12 -4 -19 -1 -8 3 -5 6 6 6 11 1 17 -2 13 -5z
m1086 -1 c-7 -2 -19 -2 -25 0 -7 3 -2 5 12 5 14 0 19 -2 13 -5z m-1036 -9 c-3
-3 -12 -4 -19 -1 -8 3 -5 6 6 6 11 1 17 -2 13 -5z m968 -4 c-16 -4 -43 -8 -60
-8 -29 1 -29 1 5 8 19 4 46 7 60 8 22 0 22 -1 -5 -8z m-912 -7 c-7 -2 -19 -2
-25 0 -7 3 -2 5 12 5 14 0 19 -2 13 -5z m80 -10 c-7 -2 -21 -2 -30 0 -10 3 -4
5 12 5 17 0 24 -2 18 -5z m725 0 c-10 -2 -26 -2 -35 0 -10 3 -2 5 17 5 19 0
27 -2 18 -5z m-630 -10 c-10 -2 -28 -2 -40 0 -13 2 -5 4 17 4 22 1 32 -1 23
-4z m550 0 c-16 -2 -40 -2 -55 0 -16 2 -3 4 27 4 30 0 43 -2 28 -4z m-190 -10
c-60 -2 -156 -2 -215 0 -60 1 -11 3 107 3 118 0 167 -2 108 -3z"/>
<path d="M1390 1372 c0 -8 -136 -713 -145 -749 -5 -22 -3 -23 79 -23 l84 0 43
223 44 222 72 3 c97 4 151 -11 159 -44 5 -20 -37 -278 -63 -382 -5 -22 -3 -22
81 -22 47 0 86 1 86 3 0 1 16 83 35 182 19 99 35 206 35 238 0 53 -3 62 -33
92 -41 41 -102 55 -244 55 -104 0 -105 0 -100 23 3 12 11 51 17 87 6 36 13 73
16 83 5 15 -3 17 -80 17 -47 0 -86 -4 -86 -8z"/>
<path d="M590 783 l-75 -388 79 -3 c48 -2 82 1 86 8 3 6 14 53 24 104 l18 94
141 3 c131 4 146 6 199 32 116 57 190 177 192 313 0 63 -3 77 -29 119 -21 35
-45 56 -80 74 -48 25 -57 26 -265 29 l-215 4 -75 -389z m428 251 c62 -24 77
-81 47 -180 -16 -56 -62 -105 -114 -123 -50 -16 -201 -15 -201 2 0 8 14 81 30
162 17 81 30 150 30 152 0 11 175 1 208 -13z"/>
<path d="M831 958 c-6 -29 -17 -86 -25 -125 l-14 -73 67 0 c87 0 129 21 159
80 16 33 22 59 20 95 -4 62 -24 75 -125 75 l-72 0 -10 -52z"/>
<path d="M1996 1153 c-6 -21 -146 -744 -146 -756 0 -4 37 -7 83 -7 l83 0 20
103 19 102 140 6 c174 7 219 24 299 110 104 112 127 287 49 380 -55 64 -93 73
-330 77 -198 3 -211 3 -217 -15z m347 -114 c54 -15 71 -46 65 -122 -7 -79 -37
-138 -85 -168 -32 -20 -55 -24 -142 -28 l-104 -3 6 23 c3 13 18 88 33 167 l27
142 81 0 c44 0 98 -5 119 -11z"/>
<path d="M2152 897 c-12 -62 -22 -119 -22 -125 0 -8 22 -12 68 -12 105 0 153
38 171 137 18 93 -3 113 -122 113 l-73 0 -22 -113z"/>
<path d="M51 884 c0 -11 3 -14 6 -6 3 7 2 16 -1 19 -3 4 -6 -2 -5 -13z"/>
</g>
</svg>
